<?xml version="1.0" encoding="UTF-8" standalone="no"?>
<!-- Generator: Adobe Illustrator 19.0.0, SVG Export Plug-In . SVG Version: 6.00 Build 0)  -->

<svg
   xmlns:dc="http://purl.org/dc/elements/1.1/"
   xmlns:cc="http://creativecommons.org/ns#"
   xmlns:rdf="http://www.w3.org/1999/02/22-rdf-syntax-ns#"
   xmlns:svg="http://www.w3.org/2000/svg"
   xmlns="http://www.w3.org/2000/svg"
   xmlns:sodipodi="http://sodipodi.sourceforge.net/DTD/sodipodi-0.dtd"
   xmlns:inkscape="http://www.inkscape.org/namespaces/inkscape"
   version="1.1"
   id="Calque_1"
   x="0px"
   y="0px"
   viewBox="0 0 2000 2000"
   xml:space="preserve"
   sodipodi:docname="outlook.svg"
   inkscape:export-filename="D:\Cours\Associations\SiEra\Logo\XMLID_220_.png"
   inkscape:export-xdpi="19.200001"
   inkscape:export-ydpi="19.200001"
   inkscape:version="0.92.2 (5c3e80d, 2017-08-06)"><metadata
     id="metadata14"><rdf:RDF><cc:Work
         rdf:about=""><dc:format>image/svg+xml</dc:format><dc:type
           rdf:resource="http://purl.org/dc/dcmitype/StillImage" /></cc:Work></rdf:RDF></metadata><defs
     id="defs12" /><sodipodi:namedview
     pagecolor="#ffffff"
     bordercolor="#666666"
     borderopacity="1"
     objecttolerance="10"
     gridtolerance="10"
     guidetolerance="10"
     inkscape:pageopacity="0"
     inkscape:pageshadow="2"
     inkscape:window-width="1920"
     inkscape:window-height="1003"
     id="namedview10"
     showgrid="false"
     inkscape:zoom="0.3337544"
     inkscape:cx="1135.5396"
     inkscape:cy="948.56355"
     inkscape:window-x="-9"
     inkscape:window-y="-9"
     inkscape:window-maximized="1"
     inkscape:current-layer="Calque_1" /><circle
     id="XMLID_1_"
     fill="none"
     stroke="#FFFF00"
     stroke-width="0.25"
     stroke-miterlimit="10"
     cx="1000"
     cy="1000"
     r="1000"
     style="stroke-width:0;stroke-miterlimit:10;stroke-dasharray:none;stroke:none;fill:none;fill-opacity:1" /><rect
     style="opacity:1;fill:#ffffff;fill-opacity:1;stroke:none;stroke-width:0;stroke-linejoin:miter;stroke-miterlimit:10;stroke-dasharray:none;stroke-dashoffset:0;stroke-opacity:1"
     id="rect823"
     width="2007.4641"
     height="2010.4603"
     x="-2.9962151"
     y="-7.4641685"
     rx="10"
     ry="10" /><g
     id="XMLID_220_"><path
       id="XMLID_221_"
       fill="#EFDB46"
       d="M829.4,287.6c-17.8,0-33.9,3-48.4,9.1c-14.5,6.1-26.9,14.5-37,25.4   c-10.2,10.8-18.1,23.7-23.7,38.7c-5.6,15-8.5,31.3-8.5,49.1c0,18.6,3.3,34.9,9.8,48.8c6.5,13.9,14.8,25.8,25,35.8   c10.2,10,21.6,17.9,34.1,23.7c12.6,5.9,24.9,9.9,37,12c11.7,2.2,24.5,5.1,38.4,8.8c13.9,3.7,26.6,9.1,38.3,16.3   s21.5,16.8,29.3,28.9c7.8,12.1,11.7,27.5,11.7,46.1c0,16.5-2.6,30.9-7.8,43.2c-5.2,12.3-12.4,22.6-21.5,30.9   c-9.1,8.2-19.6,14.4-31.5,18.5c-11.9,4.1-24.6,6.2-38,6.2H616.2v-86.4h212.5c3.5,0,6.2-1.2,8.1-3.6c2-2.4,2.9-4.9,2.9-7.5   c0-6.1-2.6-10.2-7.8-12.4c-1.3-0.4-6.5-1.5-15.6-3.3c-9.1-1.7-19.4-3.9-30.9-6.5c-11.5-2.6-22.9-5.5-34.1-8.8   c-11.3-3.3-19.9-6.6-26-10.1c-12.6-6.9-24.9-15.6-37-26c-12.1-10.4-22.9-22.9-32.2-37.4c-9.3-14.5-16.8-31.4-22.4-50.7   c-5.6-19.3-8.4-41.5-8.4-66.6c0-29,5.3-56.3,15.9-81.9c10.6-25.6,25-47.7,43.2-66.3c18.2-18.6,39.8-33.4,64.7-44.2   c24.9-10.8,51.7-16.3,80.3-16.3h215.2v86.4H829.4z M832.6,398.1c-3.5,0-6.2,1.1-8.1,3.3c-2,2.2-2.9,4.8-2.9,7.8   c0,2.6,0.6,5.1,2,7.5c1.3,2.4,3.3,3.8,5.8,4.2c1.3,0.4,6.4,1.6,15.3,3.6c8.9,2,19,4.2,30.2,6.8c11.3,2.6,22.6,5.5,34.1,8.8   c11.5,3.3,20.3,6.4,26.3,9.4c13,7.4,25.8,16.3,38.3,26.6c12.6,10.4,23.8,22.9,33.8,37.4c10,14.5,18,31.4,24.1,50.7   c6.1,19.3,9.1,41.3,9.1,66c0,29.5-5.3,56.9-15.9,82.2c-10.6,25.3-25,47.3-43.2,66c-18.2,18.6-39.8,33.4-64.7,44.2   c-24.9,10.8-51.7,16.3-80.3,16.3H616.2v-86.5h220.4c18.2,0,34.8-3,49.7-9.1c15-6.1,27.8-14.5,38.7-25.4   c10.8-10.8,19.2-23.7,25-38.7c5.8-14.9,8.8-31.3,8.8-49.1c0-22.5-4.1-41-12.3-55.3c-8.2-14.3-18.4-25.7-30.5-34.1   c-12.1-8.5-25.2-14.7-39.3-18.9c-14.1-4.1-27-7.5-38.7-10.1c-13-2.6-25.7-6.2-38-10.7c-12.3-4.6-23.3-10.7-32.8-18.5   c-9.5-7.8-17.2-17.5-23.1-29.3c-5.9-11.7-8.8-26.2-8.8-43.5c0-16.5,2.4-30.9,7.2-43.2c4.8-12.4,11.4-22.6,19.8-30.9   c8.5-8.2,18.4-14.4,29.9-18.5c11.5-4.1,23.9-6.2,37.4-6.2h215.2v86.4L832.6,398.1z" /><path
       id="XMLID_224_"
       fill="#EFDB46"
       d="M1101.1,838.8V201.2h86.5v637.6H1101.1z M1210.9,838.8V201.2h86.4v637.6H1210.9z" /><path
       id="XMLID_227_"
       fill="#0462B9"
       d="M233.7,1177.5c0-27.3,5-53,15-77c10-24,23.3-44.8,40-62.4c16.7-17.6,36-31.4,57.9-41.6   c21.9-10.2,44.5-15.3,67.9-15.3h246.3v86.4H424.8c-16.5,0-31.2,3.3-44.2,9.8s-23.9,15-32.8,25.4c-8.9,10.4-15.7,22.2-20.5,35.4   c-4.8,13.2-7.2,26.3-7.2,39.3v245c0,13,2.4,26.1,7.2,39.3c4.8,13.2,11.6,25,20.5,35.4c8.9,10.4,19.8,18.8,32.8,25.3   s27.7,9.8,44.2,9.8h235.9v86.5H414.4c-23.4,0-46-5.1-67.9-15.3c-21.9-10.2-41.2-24-57.9-41.6c-16.7-17.5-30-38.3-40-62.4   c-10-24-15-49.7-15-77V1177.5z M343.5,1289.3v-98.8c0-11.3,1.8-22.9,5.5-34.8c3.7-11.9,9.2-22.6,16.6-32.2   c7.4-9.5,16.7-17.3,28-23.4c11.3-6.1,24.5-9.1,39.6-9.1h227.5v86.5H435.2c-2.6,0-5.3,1.5-8.1,4.5c-2.8,3-4.2,7.1-4.2,12.3v9.1   h188.5v85.8H343.5z M343.5,1310.7h267.8v86.4H422.8v8.5c0,5.2,1.4,9.3,4.2,12.4c2.8,3,5.5,4.5,8.1,4.5h225.5v86.5H433.2   c-15.2,0-28.4-3-39.6-9.1c-11.3-6.1-20.6-13.9-28-23.4c-7.4-9.5-12.9-20.3-16.6-32.2c-3.7-11.9-5.5-23.5-5.5-34.8V1310.7z" /><path
       id="XMLID_231_"
       fill="#0462B9"
       d="M963,1314.6c12.6-0.9,24.8-4.5,36.7-11c11.9-6.5,22.4-15.2,31.5-26   c9.1-10.8,16.5-23.5,22.1-38c5.6-14.5,8.5-30.4,8.5-47.8c0-17.8-2.8-34.2-8.5-49.4c-5.6-15.2-13.7-28.2-24-39   c-10.4-10.8-22.9-19.3-37.4-25.3c-14.5-6.1-30.9-9.1-49.1-9.1H688.7v-87.7h254.2c28.6,0,55.5,5.4,80.6,16.3   c25.1,10.8,47,25.8,65.7,44.9c18.6,19.1,33.3,41.4,43.9,67c10.6,25.6,15.9,53.1,15.9,82.5c0,37.3-6.3,69.4-18.8,96.5   c-12.6,27.1-29.7,48.9-51.4,65.3l148.2,265.2h-88.4L963,1314.6z M688.7,1092.3h254.2c27.3,0,49.9,8.2,67.9,24.7   c18,16.5,27,41.4,27,74.8c0,14.3-2.4,27.6-7.1,40c-4.8,12.4-11.4,23.1-19.8,32.2c-8.5,9.1-18.5,16.3-30.2,21.5   c-11.7,5.2-24.3,7.8-37.7,7.8h-21.5l185.3,325.7h-93l-128.7-223v223h-86.4v-415.3h141c3.5,0,6.2-1.3,8.1-3.9s2.9-5.4,2.9-8.5   c0-3-1-5.7-2.9-8.1c-2-2.4-4.7-3.6-8.1-3.6H775.1v439.4h-86.5V1092.3z" /><path
       id="XMLID_234_"
       fill="#0462B9"
       d="M1388,1542.8h269.7l-165.1-458.3c-1.3-4.3-5.2-8.2-11.7-11.7c-6.5-3.5-12.8-5.2-18.8-5.2   c-6.9,0-13.3,1.7-19.2,5.2c-5.9,3.5-9.4,7.4-10.7,11.7l-187.8,534.3h-86.5l200.9-566.8c3-9.1,7.4-17.9,13-26.3   c5.6-8.5,12.7-16,21.1-22.8c8.4-6.7,18.4-12,29.9-15.9c11.5-3.9,24.6-5.9,39.3-5.9c14.7,0,27.7,1.9,39,5.9   c11.3,3.9,21.1,9.2,29.6,15.9c8.4,6.7,15.5,14.3,21.1,22.8c5.6,8.5,10.2,17.2,13.7,26.3l200.8,566.8H1388V1542.8z M1388,1519.4   v-24.7l-41.6,124.2h-78.6l178.8-518c0.9-2.6,2.9-4.9,6.2-6.8s6.4-2.9,9.4-2.9c3,0,6.3,1,9.8,2.9c3.5,2,5.6,4.2,6.5,6.8l148.2,418.6   H1388z M1462.1,1278.2l-52,163.8h106L1462.1,1278.2z" /></g></svg>